<svg width="60" height="60" viewBox="0 0 60 60" fill="none" xmlns="http://www.w3.org/2000/svg">
<path d="M30.25 44.5625C30.9167 44.5625 31.4792 44.3333 31.9375 43.875C32.3958 43.4167 32.625 42.8542 32.625 42.1875C32.625 41.5208 32.3958 40.9583 31.9375 40.5C31.4792 40.0417 30.9167 39.8125 30.25 39.8125C29.5833 39.8125 29.0208 40.0417 28.5625 40.5C28.1042 40.9583 27.875 41.5208 27.875 42.1875C27.875 42.8542 28.1042 43.4167 28.5625 43.875C29.0208 44.3333 29.5833 44.5625 30.25 44.5625ZM28.0625 35.4375H31.75C31.75 34.3542 31.8854 33.3646 32.1562 32.4687C32.4271 31.5729 33.2708 30.5417 34.6875 29.375C35.9792 28.2917 36.8958 27.2292 37.4375 26.1875C37.9792 25.1458 38.25 24 38.25 22.75C38.25 20.5417 37.5312 18.7708 36.0937 17.4375C34.6562 16.1042 32.75 15.4375 30.375 15.4375C28.3333 15.4375 26.5312 15.9479 24.9687 16.9687C23.4062 17.9896 22.2708 19.3958 21.5625 21.1875L24.875 22.4375C25.3333 21.2708 26.0208 20.3646 26.9375 19.7187C27.8542 19.0729 28.9375 18.75 30.1875 18.75C31.6042 18.75 32.75 19.1354 33.625 19.9062C34.5 20.6771 34.9375 21.6667 34.9375 22.875C34.9375 23.7917 34.6667 24.6562 34.125 25.4687C33.5833 26.2812 32.7917 27.125 31.75 28C30.5 29.0833 29.5729 30.1562 28.9687 31.2187C28.3646 32.2812 28.0625 33.6875 28.0625 35.4375ZM30 55C26.5833 55 23.3542 54.3437 20.3125 53.0312C17.2708 51.7187 14.6146 49.9271 12.3437 47.6562C10.0729 45.3854 8.28125 42.7292 6.96875 39.6875C5.65625 36.6458 5 33.4167 5 30C5 26.5417 5.65625 23.2917 6.96875 20.25C8.28125 17.2083 10.0729 14.5625 12.3437 12.3125C14.6146 10.0625 17.2708 8.28125 20.3125 6.96875C23.3542 5.65625 26.5833 5 30 5C33.4583 5 36.7083 5.65625 39.75 6.96875C42.7917 8.28125 45.4375 10.0625 47.6875 12.3125C49.9375 14.5625 51.7187 17.2083 53.0312 20.25C54.3437 23.2917 55 26.5417 55 30C55 33.4167 54.3437 36.6458 53.0312 39.6875C51.7187 42.7292 49.9375 45.3854 47.6875 47.6562C45.4375 49.9271 42.7917 51.7187 39.75 53.0312C36.7083 54.3437 33.4583 55 30 55ZM30 51.25C35.9167 51.25 40.9375 49.1771 45.0625 45.0312C49.1875 40.8854 51.25 35.875 51.25 30C51.25 24.0833 49.1875 19.0625 45.0625 14.9375C40.9375 10.8125 35.9167 8.75 30 8.75C24.125 8.75 19.1146 10.8125 14.9688 14.9375C10.8229 19.0625 8.75 24.0833 8.75 30C8.75 35.875 10.8229 40.8854 14.9688 45.0312C19.1146 49.1771 24.125 51.25 30 51.25Z" fill="#2FBCCC"/>
</svg>
