<svg width="60" height="60" viewBox="0 0 60 60" fill="none" xmlns="http://www.w3.org/2000/svg">
<path fill-rule="evenodd" clip-rule="evenodd" d="M45.9448 14.0698C41.7114 9.83643 36.0864 7.5 30.0952 7.5C17.7466 7.5 7.69043 17.5488 7.69043 29.8975C7.6831 33.8452 8.71582 37.6978 10.6787 41.0962L7.5 52.7051L19.3799 49.585C22.6465 51.3721 26.3379 52.3096 30.0879 52.3169H30.0952C42.4438 52.3169 52.4927 42.2681 52.5 29.9121C52.5 23.9282 50.1709 18.3032 45.9448 14.0698ZM30.0952 48.5303H30.0879C26.748 48.5303 23.4668 47.6294 20.6104 45.9375L19.9292 45.5347L12.876 47.3804L14.7583 40.5103L14.3188 39.8071C12.4512 36.8408 11.4697 33.4131 11.4697 29.8975C11.4697 19.6362 19.8267 11.2866 30.1025 11.2866C35.0757 11.2866 39.7485 13.2275 43.2642 16.7432C46.7798 20.2661 48.7134 24.939 48.7134 29.9121C48.7134 40.1807 40.3564 48.5303 30.0952 48.5303ZM40.3052 34.585C39.7485 34.3066 36.9946 32.9517 36.4819 32.7686C35.9692 32.5781 35.5957 32.4902 35.2222 33.0469C34.8486 33.6108 33.7793 34.8706 33.4497 35.2441C33.1274 35.6104 32.7979 35.6616 32.2412 35.3833C31.6772 35.105 29.8755 34.5117 27.7368 32.6001C26.0742 31.1206 24.9463 29.2822 24.624 28.7256C24.2944 28.1616 24.5874 27.8613 24.8657 27.583C25.1221 27.334 25.4297 26.9312 25.708 26.6016C25.9863 26.2793 26.0815 26.0449 26.272 25.6714C26.4551 25.2979 26.3599 24.9683 26.2207 24.6899C26.0815 24.4116 24.9609 21.6504 24.4922 20.5298C24.0381 19.4385 23.5767 19.5923 23.2324 19.5703C22.9102 19.5557 22.5366 19.5557 22.1631 19.5557C21.7896 19.5557 21.1816 19.6948 20.6689 20.2588C20.1563 20.8154 18.7134 22.1704 18.7134 24.9243C18.7134 27.6782 20.7202 30.3442 20.9985 30.7178C21.2769 31.084 24.9463 36.7383 30.564 39.1626C31.897 39.7412 32.937 40.0854 33.75 40.3418C35.0903 40.7666 36.3135 40.708 37.2803 40.5688C38.3569 40.4077 40.5908 39.2139 41.0596 37.9028C41.521 36.5991 41.521 35.4785 41.3818 35.2441C41.2427 35.0098 40.8691 34.8706 40.3052 34.585Z" fill="#2FBCCC"/>
</svg>
